<svg fill="#000000" xmlns="http://www.w3.org/2000/svg"  viewBox="0 0 64 64" width="256px" height="256px"><path d="M 13 6 C 9.1482075 6 6 9.1482075 6 13 L 6 51 C 6 54.851793 9.1482075 58 13 58 L 51 58 C 54.851793 58 58 54.851793 58 51 L 58 13 C 58 9.1482075 54.851793 6 51 6 L 13 6 z M 13 8 L 51 8 C 53.768207 8 56 10.231793 56 13 L 56 51 C 56 53.768207 53.768207 56 51 56 L 13 56 C 10.231793 56 8 53.768207 8 51 L 8 13 C 8 10.231793 10.231793 8 13 8 z M 23 12 C 18.813879 12 16.182971 13.385192 14.716797 14.640625 C 13.610202 15.588415 13 16.977252 13 18.416016 L 13 39.044922 C 13 40.536199 14.71477 41.535638 16.005859 40.771484 A 1.0001 1.0001 0 0 0 16.005859 40.769531 C 17.329135 39.986024 19.644392 39 23 39 C 28.333333 39 31.105469 44.447266 31.105469 44.447266 A 1.0001 1.0001 0 0 0 31.123047 44.478516 A 1.0001 1.0001 0 0 0 31.175781 44.564453 A 1.0001 1.0001 0 0 0 31.224609 44.628906 A 1.0001 1.0001 0 0 0 31.253906 44.664062 A 1.0001 1.0001 0 0 0 31.292969 44.707031 A 1.0001 1.0001 0 0 0 31.320312 44.732422 A 1.0001 1.0001 0 0 0 31.367188 44.773438 A 1.0001 1.0001 0 0 0 31.410156 44.804688 A 1.0001 1.0001 0 0 0 31.439453 44.826172 A 1.0001 1.0001 0 0 0 31.492188 44.859375 A 1.0001 1.0001 0 0 0 31.533203 44.882812 A 1.0001 1.0001 0 0 0 31.564453 44.898438 A 1.0001 1.0001 0 0 0 31.632812 44.927734 A 1.0001 1.0001 0 0 0 31.650391 44.935547 A 1.0001 1.0001 0 0 0 31.724609 44.960938 A 1.0001 1.0001 0 0 0 31.748047 44.966797 A 1.0001 1.0001 0 0 0 31.826172 44.984375 A 1.0001 1.0001 0 0 0 31.830078 44.984375 A 1.0001 1.0001 0 0 0 31.839844 44.986328 A 1.0001 1.0001 0 0 0 31.908203 44.994141 A 1.0001 1.0001 0 0 0 31.976562 44.998047 A 1.0001 1.0001 0 0 0 32.005859 45 A 1.0001 1.0001 0 0 0 32.064453 44.998047 A 1.0001 1.0001 0 0 0 32.107422 44.994141 A 1.0001 1.0001 0 0 0 32.175781 44.982422 A 1.0001 1.0001 0 0 0 32.191406 44.980469 A 1.0001 1.0001 0 0 0 32.228516 44.972656 A 1.0001 1.0001 0 0 0 32.251953 44.964844 A 1.0001 1.0001 0 0 0 32.314453 44.949219 A 1.0001 1.0001 0 0 0 32.324219 44.945312 A 1.0001 1.0001 0 0 0 32.337891 44.939453 A 1.0001 1.0001 0 0 0 32.412109 44.910156 A 1.0001 1.0001 0 0 0 32.416016 44.908203 A 1.0001 1.0001 0 0 0 32.472656 44.880859 A 1.0001 1.0001 0 0 0 32.480469 44.875 A 1.0001 1.0001 0 0 0 32.558594 44.828125 A 1.0001 1.0001 0 0 0 32.619141 44.783203 A 1.0001 1.0001 0 0 0 32.666016 44.744141 A 1.0001 1.0001 0 0 0 32.730469 44.681641 A 1.0001 1.0001 0 0 0 32.738281 44.673828 A 1.0001 1.0001 0 0 0 32.748047 44.662109 A 1.0001 1.0001 0 0 0 32.796875 44.603516 A 1.0001 1.0001 0 0 0 32.800781 44.597656 A 1.0001 1.0001 0 0 0 32.837891 44.544922 A 1.0001 1.0001 0 0 0 32.841797 44.537109 A 1.0001 1.0001 0 0 0 32.882812 44.46875 A 1.0001 1.0001 0 0 0 32.888672 44.458984 A 1.0001 1.0001 0 0 0 32.894531 44.447266 C 32.894363 44.447376 35.666667 39 41 39 C 44.355608 39 46.670865 39.985977 47.994141 40.769531 A 1.0001 1.0001 0 0 0 47.994141 40.771484 C 49.28523 41.535591 51 40.536199 51 39.044922 L 51 18.416016 C 51 16.977252 50.389798 15.588415 49.283203 14.640625 C 47.817029 13.385192 45.186121 12 41 12 C 37.214286 12 34.656467 13.668443 33.138672 15.324219 C 32.603226 15.908341 32.315917 16.428115 32 16.947266 C 31.684083 16.428115 31.396774 15.908341 30.861328 15.324219 C 29.343533 13.668443 26.785714 12 23 12 z M 23 14 C 26.214286 14 28.156467 15.331557 29.388672 16.675781 C 30.583431 17.979155 30.974253 19.161053 31 19.236328 L 31 40.955078 C 29.400728 39.11309 26.834783 37 23 37 C 19.256672 37 16.575942 38.11159 15 39.042969 L 15 18.416016 C 15 17.540779 15.368173 16.716367 16.017578 16.160156 C 17.153404 15.187589 19.246121 14 23 14 z M 41 14 C 44.753879 14 46.846596 15.187589 47.982422 16.160156 C 48.631827 16.716367 49 17.540779 49 18.416016 L 49 39.042969 C 47.424058 38.11159 44.743328 37 41 37 C 37.165217 37 34.599272 39.11309 33 40.955078 L 33 19.236328 C 33.02575 19.161048 33.416569 17.979155 34.611328 16.675781 C 35.843533 15.331557 37.785714 14 41 14 z M 12 48 C 11.448 48 11 48.448 11 49 L 11 51 C 11 51.552 11.448 52 12 52 C 12.552 52 13 51.552 13 51 L 13 49 C 13 48.448 12.552 48 12 48 z M 17 48 C 16.448 48 16 48.448 16 49 L 16 51 C 16 51.552 16.448 52 17 52 C 17.552 52 18 51.552 18 51 L 18 49 C 18 48.448 17.552 48 17 48 z M 22 48 C 21.448 48 21 48.448 21 49 L 21 51 C 21 51.552 21.448 52 22 52 C 22.552 52 23 51.552 23 51 L 23 49 C 23 48.448 22.552 48 22 48 z M 27 48 C 26.448 48 26 48.448 26 49 L 26 51 C 26 51.552 26.448 52 27 52 C 27.552 52 28 51.552 28 51 L 28 49 C 28 48.448 27.552 48 27 48 z M 32 48 C 31.448 48 31 48.448 31 49 L 31 51 C 31 51.552 31.448 52 32 52 C 32.552 52 33 51.552 33 51 L 33 49 C 33 48.448 32.552 48 32 48 z M 37 48 C 36.448 48 36 48.448 36 49 L 36 51 C 36 51.552 36.448 52 37 52 C 37.552 52 38 51.552 38 51 L 38 49 C 38 48.448 37.552 48 37 48 z M 42 48 C 41.448 48 41 48.448 41 49 L 41 51 C 41 51.552 41.448 52 42 52 C 42.552 52 43 51.552 43 51 L 43 49 C 43 48.448 42.552 48 42 48 z M 47 48 C 46.448 48 46 48.448 46 49 L 46 51 C 46 51.552 46.448 52 47 52 C 47.552 52 48 51.552 48 51 L 48 49 C 48 48.448 47.552 48 47 48 z M 52 48 C 51.448 48 51 48.448 51 49 L 51 51 C 51 51.552 51.448 52 52 52 C 52.552 52 53 51.552 53 51 L 53 49 C 53 48.448 52.552 48 52 48 z"/></svg>